<svg width="121" height="121" viewBox="0 0 121 121" fill="none" xmlns="http://www.w3.org/2000/svg">
<path fill-rule="evenodd" clip-rule="evenodd" d="M76.8393 0C76.2383 0 75.7896 0.327396 75.5351 0.558107C75.255 0.811893 75.0084 1.13308 74.7954 1.45417C74.3654 2.10245 73.9435 2.94941 73.5613 3.81172C72.7909 5.54947 72.0953 7.54756 71.7317 8.63833C71.7264 8.65433 71.7107 8.66691 71.6916 8.66756C70.5526 8.70606 68.465 8.80822 66.6455 9.07506C65.7466 9.20689 64.8413 9.38866 64.1345 9.65185C63.7864 9.78145 63.4069 9.95922 63.0938 10.2171C62.777 10.4781 62.3999 10.9356 62.3999 11.5953C62.3999 12.0515 62.5725 12.4554 62.7288 12.7436C62.8963 13.0525 63.1176 13.3587 63.3543 13.6478C63.8289 14.2273 64.4563 14.8476 65.1051 15.4375C66.4088 16.6231 67.9185 17.7938 68.7774 18.441C68.791 18.4512 68.7973 18.4683 68.7917 18.4867C68.4618 19.5696 67.8889 21.5512 67.5245 23.3891C67.3434 24.302 67.2037 25.2287 67.1827 26.0113C67.1722 26.4006 67.1894 26.8036 67.2672 27.1732C67.3397 27.5174 67.499 28.0005 67.9068 28.3608C68.3644 28.7652 68.9152 28.8189 69.2965 28.7953C69.6865 28.7712 70.0771 28.6583 70.4251 28.5269C71.128 28.2617 71.9214 27.8178 72.6822 27.3385C74.2191 26.3703 75.8464 25.1136 76.7719 24.3746C76.7886 24.3613 76.8132 24.3609 76.8308 24.3749C77.7561 25.1145 79.3848 26.372 80.9331 27.3408C81.7 27.8207 82.5016 28.2646 83.2166 28.5296C83.5716 28.6611 83.9661 28.7719 84.3596 28.7954C84.7459 28.8185 85.2815 28.7643 85.7385 28.3891C86.1667 28.0376 86.3446 27.5547 86.4272 27.1966C86.5141 26.8194 86.5343 26.4099 86.5246 26.0176C86.5053 25.2292 86.3583 24.299 86.1677 23.3864C85.784 21.5481 85.1768 19.566 84.8256 18.4785C84.8194 18.4592 84.8259 18.4412 84.84 18.4307C85.7033 17.7798 87.2097 16.6107 88.509 15.4281C89.1555 14.8396 89.7805 14.2211 90.2531 13.6431C90.489 13.3548 90.7094 13.0494 90.8763 12.7411C91.032 12.4534 91.2038 12.0505 91.2038 11.5953C91.2038 10.9363 90.8275 10.4791 90.5109 10.218C90.1982 9.96005 89.819 9.78228 89.4715 9.65269C88.7656 9.38953 87.8616 9.20776 86.9639 9.07589C85.1467 8.80897 83.0608 8.70652 81.9191 8.6678C81.8999 8.66714 81.8845 8.65461 81.8792 8.63847C81.5239 7.54445 80.8457 5.54809 80.0909 3.81274C79.7164 2.95172 79.302 2.10557 78.8774 1.45757C78.6671 1.13664 78.4226 0.814822 78.1436 0.560213C77.8892 0.328103 77.4411 0 76.8393 0Z" fill="#27043C"/>
<path fill-rule="evenodd" clip-rule="evenodd" d="M105.224 22.4C104.84 22.4 104.553 22.6183 104.391 22.7721C104.212 22.9413 104.054 23.1554 103.918 23.3695C103.644 23.8017 103.374 24.3663 103.13 24.9412C102.638 26.0997 102.193 27.4317 101.961 28.1589C101.958 28.1696 101.948 28.178 101.936 28.1784C101.208 28.2041 99.8744 28.2722 98.7121 28.4501C98.1379 28.538 97.5596 28.6591 97.108 28.8346C96.8857 28.921 96.6433 29.0395 96.4433 29.2114C96.2409 29.3854 96 29.6904 96 30.1302C96 30.4344 96.1103 30.7036 96.2101 30.8958C96.3171 31.1017 96.4585 31.3058 96.6097 31.4986C96.9128 31.8849 97.3137 32.2984 97.7281 32.6917C98.5609 33.4821 99.5253 34.2625 100.074 34.694C100.083 34.7008 100.087 34.7122 100.083 34.7245C99.8724 35.4465 99.5064 36.7675 99.2736 37.9928C99.1579 38.6014 99.0687 39.2191 99.0552 39.7409C99.0486 40.0005 99.0595 40.2691 99.1093 40.5155C99.1556 40.7449 99.2573 41.067 99.5178 41.3072C99.8101 41.5768 100.162 41.6126 100.406 41.5969C100.655 41.5808 100.904 41.5055 101.127 41.418C101.576 41.2411 102.082 40.9452 102.568 40.6257C103.55 39.9802 104.59 39.1424 105.181 38.6498C105.192 38.6409 105.207 38.6406 105.219 38.65C105.81 39.143 106.85 39.9813 107.839 40.6273C108.329 40.9472 108.841 41.2431 109.298 41.4197C109.525 41.5074 109.777 41.5813 110.028 41.597C110.275 41.6124 110.617 41.5762 110.909 41.3261C111.182 41.0918 111.296 40.7699 111.349 40.5311C111.404 40.2796 111.417 40.0066 111.411 39.7451C111.399 39.2195 111.305 38.5994 111.183 37.9909C110.938 36.7654 110.55 35.444 110.326 34.719C110.322 34.7062 110.326 34.6942 110.335 34.6871C110.886 34.2532 111.849 33.4738 112.679 32.6854C113.092 32.2931 113.491 31.8807 113.793 31.4955C113.943 31.3032 114.084 31.0996 114.191 30.8941C114.29 30.7023 114.4 30.4337 114.4 30.1302C114.4 29.6909 114.16 29.3861 113.957 29.212C113.758 29.0401 113.515 28.9215 113.293 28.8352C112.843 28.6597 112.265 28.5385 111.692 28.4506C110.531 28.2727 109.198 28.2044 108.469 28.1786C108.457 28.1781 108.447 28.1698 108.443 28.159C108.216 27.4297 107.783 26.0988 107.301 24.9418C107.062 24.3678 106.797 23.8037 106.526 23.3717C106.392 23.1578 106.235 22.9432 106.057 22.7735C105.895 22.6188 105.608 22.4 105.224 22.4Z" fill="#27043C"/>
<path fill-rule="evenodd" clip-rule="evenodd" d="M111.175 85.2272C111.892 83.4872 111.47 81.4785 110.116 80.1867C108.763 78.8948 106.762 78.5909 105.096 79.4241C99.4691 82.2375 93.1346 83.82 86.4235 83.82C63.047 83.82 44.0967 64.58 44.0967 40.8463C44.0967 31.238 47.1973 22.3781 52.4395 15.2238C53.5476 13.7117 53.616 11.6605 52.6114 10.0756C51.6067 8.49078 49.7395 7.70444 47.9249 8.10205C22.8169 13.6037 4 36.2726 4 63.4142C4 94.6657 28.953 120 59.734 120C82.9078 120 102.768 105.642 111.175 85.2272Z" fill="#27043C"/>
</svg>
