<svg width="512" height="512" viewBox="0 0 512 512" fill="none" xmlns="http://www.w3.org/2000/svg">
<path d="M172.389 432.584C141.707 433.199 112.454 434.999 85.4929 420.639C43.133 398.073 20.3554 362.937 19.4122 314.919C18.6369 275.398 19.1752 235.85 19.2715 196.314C19.3611 165.143 31.8157 135.275 53.9142 113.235C76.0127 91.1943 105.959 78.7736 137.21 78.6862C157.666 78.6 178.124 78.6726 199.726 78.6726C197.529 76.3047 196.12 74.6854 194.605 73.1733C176.613 55.1951 158.607 37.2342 140.589 19.2905C136.973 15.6936 133.729 12.098 136.021 6.42505C138.384 0.582147 143.197 -0.0163227 148.659 0.0107677C170.835 0.124055 193.013 0.17331 215.188 0.0107677C220.839 -0.119298 226.455 0.930201 231.675 3.09189C236.896 5.25357 241.606 8.47972 245.503 12.5635C275.503 42.6042 305.548 72.5994 335.638 102.549C345.42 112.326 345.465 123.522 335.707 133.282C305.545 163.451 275.355 193.59 245.135 223.701C241.228 227.773 236.509 230.986 231.284 233.133C226.058 235.279 220.44 236.313 214.79 236.166C192.409 235.989 170.025 236.054 147.644 236.166C142.566 236.191 138.203 235.338 135.943 230.199C133.541 224.735 136.239 220.917 139.977 217.21C158.332 199.018 176.573 180.715 194.926 162.521C196.478 161.262 198.155 160.165 199.931 159.248L198.625 157.655C176.347 157.655 154.069 157.667 131.792 157.692C130.568 157.829 129.364 158.108 128.204 158.523C119.742 160.525 112.193 165.289 106.756 172.06C101.32 178.831 98.3075 187.219 98.1977 195.893C98.0232 235.838 98.0306 275.783 98.2199 315.729C98.3545 336.584 115.997 353.779 136.964 354.108C148.225 354.283 159.491 354.139 172.389 354.139C160.185 365.467 149.105 376.142 149.028 393.121C148.947 410.292 159.548 421.28 172.389 432.584Z" fill="#322C39"/>
<path d="M338.193 158.07C351.439 146.499 362.107 135.461 362.07 118.38C362.034 101.708 351.286 90.9294 339.702 80.2494C386.525 75.765 428.868 82.1993 461.509 118.603C480.86 140.184 491.348 165.566 491.681 194.501C492.156 235.656 492.034 276.823 491.743 317.982C491.338 375.345 445.863 426.278 388.665 431.97C365.888 434.239 342.759 433.01 319.788 433.364C317.414 433.401 315.039 433.364 311.453 433.364C313.779 435.865 315.197 437.49 316.72 439.011C334.71 456.979 352.713 474.932 370.73 492.871C374.404 496.523 377.348 500.267 374.88 505.824C372.482 511.228 367.884 512.02 362.634 512C340.255 511.913 317.877 511.905 295.499 511.977C290.046 512.097 284.628 511.095 279.581 509.033C274.535 506.971 269.968 503.894 266.168 499.994C235.832 469.724 205.497 439.454 175.162 409.185C165.612 399.632 165.613 388.43 175.162 378.884C205.463 348.58 235.797 318.31 266.165 288.073C269.931 284.142 274.474 281.034 279.506 278.946C284.539 276.857 289.951 275.833 295.401 275.939C318.189 276.074 340.978 276.07 363.767 275.929C368.912 275.903 373.201 276.968 375.275 282.17C377.349 287.372 374.866 291.117 371.274 294.678C353.073 312.723 334.921 330.818 316.816 348.964C315.272 350.507 313.809 352.131 311.569 354.504C334.47 354.504 356.319 354.517 378.166 354.469C379.389 354.332 380.595 354.072 381.767 353.694C399.384 349.959 412.749 334.482 412.853 316.586C413.088 276.247 413.083 235.907 412.836 195.566C412.684 175.332 395.076 158.44 374.59 158.106C363.141 157.92 351.687 158.07 338.193 158.07Z" fill="#00D2BC"/>
</svg>
