<svg xmlns="http://www.w3.org/2000/svg" xmlns:xlink="http://www.w3.org/1999/xlink" viewBox="0 0 115.918 114.897"><defs><mask id="a" x="41.417" y="0" width="74.501" height="94.018" maskUnits="userSpaceOnUse"><g transform="translate(0 7)"><rect x="48.417" width="60.501" height="80.018" rx="5.964" fill="#fff"/></g></mask><mask id="b" x="26.37" y="15.047" width="74.501" height="94.018" maskUnits="userSpaceOnUse"><g transform="translate(0 7)"><rect x="33.37" y="15.047" width="60.501" height="80.018" rx="5.964" fill="#fff"/></g></mask></defs><g mask="url(#a)"><rect x="48.417" y="7" width="60.501" height="80.018" rx="5.964" fill="#fff" stroke="#27043c" stroke-width="14"/></g><g mask="url(#b)"><rect x="33.37" y="22.047" width="60.501" height="80.018" rx="5.964" fill="#fff" stroke="#27043c" stroke-width="14"/></g><circle cx="31.145" cy="83.751" r="27.628" fill="#fff" stroke="#27043c" stroke-width="7.035"/><path d="M27.077,68.607l-1.462.981c-.116.115-.151.188,0,.293l.138.116,1.95,1.354s1.928-1.044,2.342-1.22a5.6,5.6,0,0,1,2.313-.487,9.875,9.875,0,0,1,1.6.241,6.621,6.621,0,0,1,1.887.885l.551.363a.23.23,0,0,0,.07.05.217.217,0,0,0,.173,0,.281.281,0,0,0,.07-.05.186.186,0,0,0,.054-.061,2.627,2.627,0,0,0,.292-.612,1.976,1.976,0,0,0,.071-.524,1.85,1.85,0,0,0-.151-.733,4.591,4.591,0,0,0-.941-1.026A7.291,7.291,0,0,0,32.7,66.63a4.269,4.269,0,0,0-.845-.057A9.71,9.71,0,0,0,27.077,68.607Z" transform="translate(0 7)" fill="#27043c"/><path d="M21.285,72.732a3.059,3.059,0,0,0,0,.449,1.532,1.532,0,0,0,.561.908l.525.423c2.748,2.066,5.589,4.048,8.4,6l.423.243a1.618,1.618,0,0,0,.595.18h.066a1.532,1.532,0,0,0,.926-.313l2.6-1.833c.85-.636,1.763-1.264,2.6-1.928a6,6,0,0,0,.772-.731,4.985,4.985,0,0,0,1.164-2.688c0-.322.041-.689.041-1.068V70.359a7.5,7.5,0,0,1-.185,1.145,5.073,5.073,0,0,1-1.851,2.543c-1.653,1.2-3.3,2.394-4.987,3.547l-.383.22a1.329,1.329,0,0,1-.6.145h-.1a1.288,1.288,0,0,1-.3-.05.929.929,0,0,1-.222-.089l-.6-.359q-3.032-2.078-6-4.242l-2.6-1.97-.381-.358a1.179,1.179,0,0,1-.321-.626v-.09a.074.074,0,0,0-.039.007.08.08,0,0,0-.033.022.1.1,0,0,0-.032.073Z" transform="translate(0 7)" fill="#27043c"/><path d="M39.921,78.241c.03-.089.071-.218.114-.344v1.7a6.494,6.494,0,0,1-.076.965h0a4.681,4.681,0,0,1-1.579,2.865l-.769.634c-.879.66-1.791,1.3-2.7,1.929l-1.965,1.364-.175.1a1.331,1.331,0,0,1-.733.213h0a1.274,1.274,0,0,1-.449-.077h0A2.278,2.278,0,0,1,31,87.3h0l-5.937-4.147-2.93-2.191a1.517,1.517,0,0,1-.414-.449,1.485,1.485,0,0,1-.209-.572,2.673,2.673,0,0,1,0-.358V77.563a1.087,1.087,0,0,0,.127.219h0a2.327,2.327,0,0,0,.475.433l1.929,1.441q2.766,2.046,5.617,3.971l1.23.847.525.276h0a1.5,1.5,0,0,0,.676.1h0a1.534,1.534,0,0,0,.648-.214l.244-.138,4.92-3.512a5.425,5.425,0,0,0,1.132-1.1,5.168,5.168,0,0,0,.884-1.641Z" transform="translate(0 7)" fill="#27043c"/></svg>