<svg xmlns="http://www.w3.org/2000/svg" xmlns:xlink="http://www.w3.org/1999/xlink" viewBox="0 0 116.86 115.644"><defs><mask id="a" x="43.987" y="0" width="72.873" height="91.846" maskUnits="userSpaceOnUse"><g transform="translate(0 6.644)"><rect x="51.016" y="0.385" width="58.815" height="77.788" rx="5.798" fill="#fff"/></g></mask><mask id="b" x="26.971" y="15.615" width="72.873" height="91.846" maskUnits="userSpaceOnUse"><g transform="translate(0 6.644)"><rect x="34" y="16" width="58.815" height="77.788" rx="5.798" fill="#fff"/></g></mask></defs><g mask="url(#a)"><rect x="51.016" y="7.029" width="58.815" height="77.788" rx="5.798" fill="#fff" stroke="#181b1d" stroke-width="14.057"/></g><g mask="url(#b)"><rect x="34" y="22.644" width="58.815" height="77.788" rx="5.798" fill="#fff" stroke="#181b1d" stroke-width="14.057"/></g><circle cx="37" cy="78.644" r="33.756" fill="#fff" stroke="#181b1d" stroke-width="6.488"/><path d="M31.917,62.666l-1.728,1.159c-.137.137-.179.223,0,.347l.163.137,2.3,1.6s2.28-1.235,2.768-1.443a6.627,6.627,0,0,1,2.735-.575,11.653,11.653,0,0,1,1.9.285,7.821,7.821,0,0,1,2.231,1.045l.652.43a.268.268,0,0,0,.083.059.255.255,0,0,0,.1.021.25.25,0,0,0,.1-.021.306.306,0,0,0,.083-.059.2.2,0,0,0,.064-.073,3.079,3.079,0,0,0,.345-.723,2.346,2.346,0,0,0,.085-.619,2.184,2.184,0,0,0-.179-.866,5.44,5.44,0,0,0-1.113-1.213,8.625,8.625,0,0,0-3.949-1.829,5.128,5.128,0,0,0-1-.067A11.467,11.467,0,0,0,31.917,62.666Z" transform="translate(0 6.644)" fill="#181b1d"/><path d="M25.07,67.541a3.921,3.921,0,0,0,0,.531,1.819,1.819,0,0,0,.663,1.074l.621.5c3.249,2.442,6.607,4.784,9.934,7.095l.5.288a1.9,1.9,0,0,0,.7.212h.078a1.806,1.806,0,0,0,1.095-.37l3.076-2.166c1-.752,2.084-1.5,3.078-2.28a7.089,7.089,0,0,0,.912-.863,5.9,5.9,0,0,0,1.376-3.177c0-.381.049-.814.049-1.262V64.737a8.833,8.833,0,0,1-.22,1.353A6,6,0,0,1,44.748,69.1c-1.955,1.413-3.9,2.828-5.895,4.192l-.453.26a1.56,1.56,0,0,1-.712.171h-.12a1.557,1.557,0,0,1-.359-.059,1.1,1.1,0,0,1-.262-.105l-.712-.424q-3.582-2.456-7.093-5.014l-3.078-2.329-.451-.423a1.4,1.4,0,0,1-.38-.74v-.107a.124.124,0,0,0-.046.008.122.122,0,0,0-.038.026.124.124,0,0,0-.038.087Z" transform="translate(0 6.644)" fill="#181b1d"/><path d="M47.1,74.054c.036-.106.085-.257.135-.407v2.011a7.764,7.764,0,0,1-.09,1.14h0a5.531,5.531,0,0,1-1.866,3.387l-.909.749c-1.039.78-2.117,1.531-3.193,2.28l-2.322,1.613-.207.118a1.576,1.576,0,0,1-.867.253h0a1.5,1.5,0,0,1-.53-.092h0a2.673,2.673,0,0,1-.691-.349h0l-7.017-4.9-3.464-2.59a1.806,1.806,0,0,1-.489-.53,1.762,1.762,0,0,1-.247-.676,3,3,0,0,1,0-.424V73.253a1.342,1.342,0,0,0,.15.259h0a2.786,2.786,0,0,0,.562.511l2.28,1.7q3.269,2.419,6.639,4.694l1.454,1,.621.326h0a1.758,1.758,0,0,0,.8.116h0a1.814,1.814,0,0,0,.766-.253l.288-.163L44.715,77.3a6.432,6.432,0,0,0,1.339-1.3,6.117,6.117,0,0,0,1.044-1.94Z" transform="translate(0 6.644)" fill="#181b1d"/></svg>