<svg width="103" height="20" viewBox="0 0 103 20" fill="none" xmlns="http://www.w3.org/2000/svg">
<path d="M94.3742 1.00014C94.7877 1.07655 95.205 1.13727 95.6142 1.23228C96.918 1.53501 98.0676 2.11728 98.9126 3.18195C99.1485 3.47919 99.3694 3.83403 99.4531 4.19568C99.6002 4.83138 99.2287 5.49895 98.6732 5.80424C98.0938 6.12265 97.3243 6.06414 96.8156 5.66016C96.5623 5.45897 96.3292 5.22704 96.0579 5.05458C94.8365 4.27833 93.5531 4.2192 92.2531 4.8241C91.7131 5.0754 91.3467 5.50859 91.2698 6.13444C91.2048 6.66411 91.3584 7.12388 91.8264 7.38268C92.2951 7.64182 92.7955 7.8757 93.311 8.01228C94.5514 8.34103 95.8133 8.59142 96.9937 9.11678C98.1918 9.65006 99.192 10.4091 99.7752 11.6188C100.611 13.3534 100.153 15.78 98.7213 17.2479C97.5231 18.4762 96.0458 19.1047 94.348 19.2136C92.2219 19.3501 90.3462 18.728 88.7671 17.2815C88.2419 16.8005 87.8312 16.2292 87.5652 15.5672C87.3226 14.9635 87.337 14.3634 87.7667 13.8461C88.1791 13.3496 88.7161 13.0771 89.3819 13.2184C89.958 13.3407 90.3578 13.7347 90.6637 14.2029C91.7632 15.8863 94.0342 16.1896 95.5167 15.4715C95.8786 15.2962 96.2221 15.0038 96.4676 14.684C97.0571 13.9162 96.8365 12.9279 96.009 12.4216C95.2651 11.9666 94.4156 11.8119 93.5829 11.6243C92.4741 11.3745 91.3936 11.0571 90.3935 10.5021C86.886 8.55582 87.1817 4.31845 89.9088 2.30202C90.8742 1.58817 91.9575 1.19161 93.1455 1.05941C93.2132 1.05191 93.2781 1.02033 93.3444 1C93.6875 1.00014 94.0309 1.00014 94.3742 1.00014Z" fill="#2A1E31"/>
<path d="M24.7411 10.0759C24.7411 7.69777 24.7407 5.31963 24.7412 2.94149C24.7414 1.84614 25.4249 1.16199 26.5224 1.16248C27.6283 1.16296 28.7346 1.14922 29.84 1.17448C33.9165 1.26769 37.5671 4.34365 38.3508 8.32994C39.3427 13.376 36.0679 18.1064 30.9856 18.919C30.145 19.0533 29.2786 19.0401 28.4232 19.0646C27.7092 19.085 26.9912 19.0975 26.2797 19.0472C25.3456 18.9813 24.7427 18.2876 24.7419 17.353C24.7396 14.9273 24.7411 12.5017 24.7411 10.0759ZM28.1794 15.7034C28.9632 15.6559 29.7385 15.6698 30.4933 15.5526C33.7238 15.0507 35.7776 11.9179 34.9348 8.76674C34.1423 5.80356 31.4399 4.24094 28.1794 4.63145C28.1794 8.2985 28.1794 11.9656 28.1794 15.7034Z" fill="#2A1E31"/>
<path d="M64.284 15.6709C65.5848 15.6709 66.8614 15.6709 68.1381 15.6709C68.6721 15.6709 69.2061 15.6675 69.7401 15.6716C70.7054 15.6789 71.432 16.4159 71.4302 17.3809C71.4284 18.3384 70.7149 19.0662 69.7557 19.0681C67.3622 19.0731 64.9686 19.0735 62.5751 19.0679C61.5514 19.0655 60.8464 18.3587 60.8459 17.344C60.8439 12.5299 60.8441 7.71577 60.8457 2.90168C60.8461 1.88663 61.5723 1.16466 62.5987 1.16306C64.9636 1.15938 67.3286 1.16028 69.6935 1.16264C70.6807 1.16368 71.4247 1.89468 71.4302 2.8592C71.4359 3.83768 70.7214 4.56194 69.7149 4.56756C68.0175 4.577 66.3201 4.5702 64.6227 4.5702C64.5182 4.5702 64.4136 4.5702 64.2891 4.5702C64.2891 5.86334 64.2891 7.14356 64.2891 8.46876C64.3823 8.46876 64.4819 8.46876 64.5816 8.46876C65.7641 8.46876 66.9465 8.46737 68.129 8.46918C69.0945 8.47064 69.813 9.18199 69.8189 10.138C69.8247 11.0762 69.1169 11.7898 68.1533 11.7966C66.9709 11.8049 65.7884 11.7986 64.606 11.7986C64.5032 11.7986 64.4005 11.7986 64.284 11.7986C64.284 13.0968 64.284 14.3672 64.284 15.6709Z" fill="#2A1E31"/>
<path d="M54.0953 4.34222C53.5539 4.34222 53.0226 4.34222 52.4913 4.34222C52.0623 4.34222 51.6333 4.34527 51.2043 4.34132C50.805 4.33757 50.6177 4.16164 50.6139 3.77307C50.6077 3.11689 50.6083 2.4605 50.6137 1.80425C50.6168 1.43185 50.7826 1.27674 51.1652 1.27653C53.11 1.27535 55.0547 1.27556 56.9996 1.27632C57.4307 1.27653 57.557 1.41103 57.5573 1.87407C57.5583 4.05213 57.5577 6.23019 57.5577 8.40824C57.5577 10.0822 57.5505 11.7563 57.5599 13.4301C57.5686 14.9707 57.1604 16.3511 56.0864 17.5025C55.0343 18.6304 53.7431 19.2401 52.2037 19.2949C49.9149 19.3764 48.185 18.341 46.8512 16.5581C46.5945 16.2149 46.6928 15.8797 47.0667 15.6787C47.6276 15.3771 48.1897 15.078 48.7527 14.7806C49.161 14.565 49.4143 14.6202 49.6965 14.9795C50.3179 15.7706 51.5 16.1454 52.4739 15.8602C53.4568 15.5723 54.1037 14.7389 54.1114 13.6067C54.1323 10.5538 54.1173 7.5007 54.116 4.44764C54.1159 4.42904 54.109 4.41058 54.0953 4.34222Z" fill="#2A1E31"/>
<path d="M81.2716 4.57969C81.2716 4.70142 81.2716 4.81488 81.2716 4.92829C81.2716 9.05636 81.2721 13.1844 81.2713 17.3124C81.2711 18.4337 80.426 19.1817 79.3151 19.0479C78.4795 18.9472 77.9104 18.2679 77.9062 17.3518C77.9013 16.296 77.905 15.2402 77.905 14.1844C77.905 11.0931 77.905 8.00189 77.905 4.91059C77.905 4.79892 77.905 4.68733 77.905 4.5488C77.7826 4.5488 77.6897 4.5488 77.5969 4.5488C76.6436 4.5488 75.6902 4.55165 74.7369 4.54804C73.7253 4.54422 73.0211 3.84335 73.023 2.84926C73.0248 1.8696 73.7271 1.16443 74.7207 1.16332C77.9717 1.15978 81.2227 1.16012 84.4736 1.16311C85.4641 1.16401 86.1952 1.89764 86.1923 2.87188C86.1895 3.83363 85.4667 4.54318 84.4764 4.5479C83.4373 4.55283 82.3981 4.55054 81.359 4.55227C81.3416 4.55234 81.3242 4.56275 81.2716 4.57969Z" fill="#2A1E31"/>
<path d="M45.1011 10.1381C45.1011 12.5442 45.1031 14.9503 45.1 17.3564C45.099 18.0977 44.6869 18.6988 44.0231 18.9539C43.355 19.2106 42.5867 19.0384 42.1084 18.5205C41.8255 18.2143 41.6793 17.8471 41.6791 17.4332C41.6764 12.5545 41.6743 7.67569 41.6801 2.79691C41.6812 1.86313 42.4243 1.16281 43.3741 1.16205C44.362 1.16129 45.097 1.87576 45.0993 2.86284C45.105 5.28783 45.1011 7.71302 45.1011 10.1381Z" fill="#2A1E31"/>
<path d="M1.00012 4.24469C1.0334 4.27877 1.09173 4.30999 1.09599 4.34738C1.13744 4.71141 1.36416 4.95582 1.63964 5.15137C4.16935 6.9471 6.69961 8.74207 9.23849 10.5248C9.8517 10.9554 10.338 10.9304 10.9432 10.5035C12.3259 9.52783 13.7075 8.55058 15.0872 7.57073C15.8695 7.0151 16.4401 6.29284 16.7385 5.37819C16.8426 5.05901 16.8827 4.71903 16.9264 4.5105C16.9264 5.30733 16.9853 6.23115 16.9114 7.14425C16.8203 8.26994 16.2551 9.19822 15.3524 9.86665C13.8487 10.9801 12.3154 12.054 10.7813 13.1257C10.2825 13.4742 9.75403 13.383 9.26536 13.0645C8.7642 12.7378 8.26701 12.4043 7.77959 12.0577C5.75995 10.6211 3.74528 9.17757 1.72719 7.73882C1.38145 7.4923 1.10837 7.20093 1.04688 6.76032C1.04833 6.04442 1.05089 5.32848 1.04903 4.61259C1.04888 4.55821 1.01716 4.50394 1.00012 4.44966C1.00012 4.38135 1.00012 4.31305 1.00012 4.24469Z" fill="#03D2BC"/>
<path d="M1.00005 10.0341C1.03187 10.0555 1.08905 10.0742 1.09171 10.0987C1.13586 10.5046 1.40779 10.7497 1.70908 10.9696C2.86859 11.8161 4.02199 12.6711 5.19418 13.4998C6.49196 14.4171 7.80658 15.3108 9.11619 16.2115C9.86656 16.7275 10.2829 16.7297 11.0321 16.2039C12.3612 15.2713 13.682 14.327 15.0102 13.3931C15.8018 12.8365 16.4017 12.13 16.7129 11.209C16.8284 10.8671 16.8753 10.5021 17 10.1469C16.9657 11.1382 16.9953 12.1369 16.8799 13.1187C16.7562 14.1706 16.1785 15.0296 15.3302 15.6548C13.838 16.7547 12.3181 17.8175 10.8004 18.8824C10.2684 19.2557 9.72604 19.1449 9.21873 18.806C8.55801 18.3645 7.89869 17.9202 7.25156 17.4593C5.38627 16.1307 3.52746 14.7932 1.66598 13.4593C1.33327 13.2209 1.09537 12.9217 1.04385 12.5017C1.04616 11.7763 1.04936 11.051 1.04851 10.3257C1.04846 10.2798 1.01689 10.2339 1 10.188C1.00005 10.1366 1.00005 10.0854 1.00005 10.0341Z" fill="#03D2BC"/>
<path d="M4.73315 4.05207C4.7764 4.00281 4.79871 3.96472 4.83163 3.94167C5.63653 3.37822 6.42725 2.79263 7.25274 2.26086C8.107 1.71059 9.05037 1.3875 10.0824 1.38911C11.0443 1.39061 11.9169 1.69626 12.708 2.22432C13.0904 2.47961 13.4606 2.76136 13.7999 3.07087C14.3484 3.57117 14.4052 4.46216 13.9688 5.06114C13.8712 5.195 13.7698 5.20367 13.6417 5.11817C13.464 4.99955 13.2877 4.87867 13.1068 4.76496C11.281 3.61657 9.45485 3.62895 7.62926 4.76646C7.33914 4.94723 7.05188 5.1329 6.7563 5.3043C6.69696 5.33873 6.58355 5.35231 6.53289 5.31873C5.96318 4.94091 5.40059 4.55237 4.83729 4.16498C4.80352 4.14183 4.78006 4.10379 4.73315 4.05207Z" fill="#03A8C4"/>
</svg>
